<svg xmlns="http://www.w3.org/2000/svg" height="24" width="24"><path d="M5 21Q4.175 21 3.587 20.413Q3 19.825 3 19V5Q3 4.175 3.587 3.587Q4.175 3 5 3H9.175Q9.5 2.125 10.262 1.562Q11.025 1 12 1Q12.975 1 13.738 1.562Q14.5 2.125 14.825 3H19Q19.825 3 20.413 3.587Q21 4.175 21 5V10H19V5Q19 5 19 5Q19 5 19 5H17V8H7V5H5Q5 5 5 5Q5 5 5 5V19Q5 19 5 19Q5 19 5 19H10V21ZM12 5Q12.425 5 12.713 4.712Q13 4.425 13 4Q13 3.575 12.713 3.287Q12.425 3 12 3Q11.575 3 11.288 3.287Q11 3.575 11 4Q11 4.425 11.288 4.712Q11.575 5 12 5ZM21.6 23 18.9 20.3Q18.375 20.6 17.775 20.8Q17.175 21 16.5 21Q14.625 21 13.312 19.688Q12 18.375 12 16.5Q12 14.625 13.312 13.312Q14.625 12 16.5 12Q18.375 12 19.688 13.312Q21 14.625 21 16.5Q21 17.175 20.8 17.775Q20.6 18.375 20.3 18.9L23 21.6ZM16.5 19Q17.55 19 18.275 18.275Q19 17.55 19 16.5Q19 15.45 18.275 14.725Q17.55 14 16.5 14Q15.45 14 14.725 14.725Q14 15.45 14 16.5Q14 17.55 14.725 18.275Q15.45 19 16.5 19Z"/></svg>